# Blender v2.79 (sub 0) OBJ File: 'ambientrender.blend'
# www.blender.org
o Room_Door_Plane.002
v -2.348382 0.000000 -2.995620
v -0.348382 0.000000 -2.995620
v -2.348382 2.000000 -2.995620
v -0.348382 2.000000 -2.995620
v -2.348382 0.000000 -2.975620
v -0.348382 0.000000 -2.975620
v -2.348382 2.000000 -2.975620
v -0.348382 2.000000 -2.975620
vt 0.958751 0.923595
vt 0.049061 0.923595
vt 0.049061 0.013905
vt 0.958751 0.013905
vt 0.958751 0.923595
vt 0.049062 0.923595
vt 0.049062 0.013905
vt 0.958751 0.013905
vt 0.025575 0.970392
vt 0.970988 0.970392
vt 0.970988 0.979846
vt 0.025575 0.979846
vt 0.025575 0.951483
vt 0.970987 0.951483
vt 0.970987 0.960937
vt 0.025575 0.960938
vt 0.025575 0.970392
vt 0.025575 0.960938
vt 0.970987 0.960937
vt 0.025575 0.942029
vt 0.970988 0.942029
vt 0.970988 0.951483
vt 0.025575 0.951483
vn 0.0000 0.0000 -1.0000
vn 0.0000 0.0000 1.0000
vn -1.0000 0.0000 0.0000
vn 0.0000 1.0000 0.0000
vn 0.0000 -1.0000 0.0000
vn 1.0000 0.0000 0.0000
s off
f 1/1/1 3/2/1 4/3/1 2/4/1
f 5/5/2 6/6/2 8/7/2 7/8/2
f 3/9/3 1/10/3 5/11/3 7/12/3
f 4/13/4 3/14/4 7/15/4 8/16/4
f 1/10/5 2/17/5 6/18/5 5/19/5
f 2/20/6 4/21/6 8/22/6 6/23/6
