# Blender v2.79 (sub 0) OBJ File: 'lamproof.blend'
# www.blender.org
o LampRoof_Cube.001
v 0.710000 2.431850 0.290000
v 0.700000 2.491850 0.300000
v 0.710000 2.431850 -0.290000
v 0.700000 2.491850 -0.300000
v 1.290000 2.431850 0.290000
v 1.300000 2.491850 0.300000
v 1.290000 2.431850 -0.290000
v 1.300000 2.491850 -0.300000
v 0.990000 2.431850 -0.290000
v 1.000000 2.491850 -0.300000
v 0.990000 2.431850 0.290000
v 1.000000 2.491850 0.300000
v 0.700000 2.431850 -0.300000
v 0.700000 2.431850 0.300000
v 1.010000 2.431850 -0.290000
v 1.010000 2.431850 0.290000
v 1.300000 2.431850 0.300000
v 1.300000 2.431850 -0.300000
v 1.000000 2.431850 0.300000
v 1.000000 2.431850 -0.300000
v 0.710000 2.441850 -0.290000
v 0.710000 2.441850 0.290000
v 0.990000 2.441850 -0.290000
v 0.990000 2.441850 0.290000
v 1.290000 2.441850 0.290000
v 1.290000 2.441850 -0.290000
v 1.010000 2.441850 0.290000
v 1.010000 2.441850 -0.290000
v -1.290000 2.431850 0.290000
v -1.300000 2.491850 0.300000
v -1.290000 2.431850 -0.290000
v -1.300000 2.491850 -0.300000
v -0.710000 2.431850 0.290000
v -0.700000 2.491850 0.300000
v -0.710000 2.431850 -0.290000
v -0.700000 2.491850 -0.300000
v -1.010000 2.431850 -0.290000
v -1.000000 2.491850 -0.300000
v -1.010000 2.431850 0.290000
v -1.000000 2.491850 0.300000
v -1.300000 2.431850 -0.300000
v -1.300000 2.431850 0.300000
v -0.990000 2.431850 -0.290000
v -0.990000 2.431850 0.290000
v -0.700000 2.431850 0.300000
v -0.700000 2.431850 -0.300000
v -1.000000 2.431850 0.300000
v -1.000000 2.431850 -0.300000
v -1.290000 2.441850 -0.290000
v -1.290000 2.441850 0.290000
v -1.010000 2.441850 -0.290000
v -1.010000 2.441850 0.290000
v -0.710000 2.441850 0.290000
v -0.710000 2.441850 -0.290000
v -0.990000 2.441850 0.290000
v -0.990000 2.441850 -0.290000
v 0.710000 2.431850 -1.710000
v 0.700000 2.491850 -1.700000
v 0.710000 2.431850 -2.290000
v 0.700000 2.491850 -2.300000
v 1.290000 2.431850 -1.710000
v 1.300000 2.491850 -1.700000
v 1.290000 2.431850 -2.290000
v 1.300000 2.491850 -2.300000
v 0.990000 2.431850 -2.290000
v 1.000000 2.491850 -2.300000
v 0.990000 2.431850 -1.710000
v 1.000000 2.491850 -1.700000
v 0.700000 2.431850 -2.300000
v 0.700000 2.431850 -1.700000
v 1.010000 2.431850 -2.290000
v 1.010000 2.431850 -1.710000
v 1.300000 2.431850 -1.700000
v 1.300000 2.431850 -2.300000
v 1.000000 2.431850 -1.700000
v 1.000000 2.431850 -2.300000
v 0.710000 2.441850 -2.290000
v 0.710000 2.441850 -1.710000
v 0.990000 2.441850 -2.290000
v 0.990000 2.441850 -1.710000
v 1.290000 2.441850 -1.710000
v 1.290000 2.441850 -2.290000
v 1.010000 2.441850 -1.710000
v 1.010000 2.441850 -2.290000
v -1.290000 2.431850 -1.710000
v -1.300000 2.491850 -1.700000
v -1.290000 2.431850 -2.290000
v -1.300000 2.491850 -2.300000
v -0.710000 2.431850 -1.710000
v -0.700000 2.491850 -1.700000
v -0.710000 2.431850 -2.290000
v -0.700000 2.491850 -2.300000
v -1.010000 2.431850 -2.290000
v -1.000000 2.491850 -2.300000
v -1.010000 2.431850 -1.710000
v -1.000000 2.491850 -1.700000
v -1.300000 2.431850 -2.300000
v -1.300000 2.431850 -1.700000
v -0.990000 2.431850 -2.290000
v -0.990000 2.431850 -1.710000
v -0.700000 2.431850 -1.700000
v -0.700000 2.431850 -2.300000
v -1.000000 2.431850 -1.700000
v -1.000000 2.431850 -2.300000
v -1.290000 2.441850 -2.290000
v -1.290000 2.441850 -1.710000
v -1.010000 2.441850 -2.290000
v -1.010000 2.441850 -1.710000
v -0.710000 2.441850 -1.710000
v -0.710000 2.441850 -2.290000
v -0.990000 2.441850 -1.710000
v -0.990000 2.441850 -2.290000
v 0.710000 2.431850 2.290000
v 0.700000 2.491850 2.300000
v 0.710000 2.431850 1.710000
v 0.700000 2.491850 1.700000
v 1.290000 2.431850 2.290000
v 1.300000 2.491850 2.300000
v 1.290000 2.431850 1.710000
v 1.300000 2.491850 1.700000
v 0.990000 2.431850 1.710000
v 1.000000 2.491850 1.700000
v 0.990000 2.431850 2.290000
v 1.000000 2.491850 2.300000
v 0.700000 2.431850 1.700000
v 0.700000 2.431850 2.300000
v 1.010000 2.431850 1.710000
v 1.010000 2.431850 2.290000
v 1.300000 2.431850 2.300000
v 1.300000 2.431850 1.700000
v 1.000000 2.431850 2.300000
v 1.000000 2.431850 1.700000
v 0.710000 2.441850 1.710000
v 0.710000 2.441850 2.290000
v 0.990000 2.441850 1.710000
v 0.990000 2.441850 2.290000
v 1.290000 2.441850 2.290000
v 1.290000 2.441850 1.710000
v 1.010000 2.441850 2.290000
v 1.010000 2.441850 1.710000
v -1.290000 2.431850 2.290000
v -1.300000 2.491850 2.300000
v -1.290000 2.431850 1.710000
v -1.300000 2.491850 1.700000
v -0.710000 2.431850 2.290000
v -0.700000 2.491850 2.300000
v -0.710000 2.431850 1.710000
v -0.700000 2.491850 1.700000
v -1.010000 2.431850 1.710000
v -1.000000 2.491850 1.700000
v -1.010000 2.431850 2.290000
v -1.000000 2.491850 2.300000
v -1.300000 2.431850 1.700000
v -1.300000 2.431850 2.300000
v -0.990000 2.431850 1.710000
v -0.990000 2.431850 2.290000
v -0.700000 2.431850 2.300000
v -0.700000 2.431850 1.700000
v -1.000000 2.431850 2.300000
v -1.000000 2.431850 1.700000
v -1.290000 2.441850 1.710000
v -1.290000 2.441850 2.290000
v -1.010000 2.441850 1.710000
v -1.010000 2.441850 2.290000
v -0.710000 2.441850 2.290000
v -0.710000 2.441850 1.710000
v -0.990000 2.441850 2.290000
v -0.990000 2.441850 1.710000
vt 0.810345 0.983333
vt 0.758621 0.983333
vt 0.758621 0.483333
vt 0.810345 0.483333
vt 0.758621 0.733333
vt 0.706896 0.733333
vt 0.706896 0.483333
vt 0.758621 0.483333
vt 0.568966 0.983333
vt 0.517242 0.983333
vt 0.517241 0.483333
vt 0.568965 0.483333
vt 0.568966 0.733333
vt 0.620690 0.733333
vt 0.620690 0.983333
vt 0.568966 0.983333
vt 0.698276 0.483333
vt 0.698276 0.966667
vt 0.689655 0.966667
vt 0.689655 0.483333
vt 0.258621 1.000000
vt 0.000000 1.000000
vt 0.000000 0.500000
vt 0.258621 0.500000
vt 0.517241 1.000000
vt 0.517241 0.500000
vt 0.646552 0.483333
vt 0.646552 0.716667
vt 0.637931 0.716667
vt 0.637931 0.483333
vt 0.620690 0.483333
vt 0.758621 0.983333
vt 0.706897 0.983333
vt 0.008621 0.008333
vt 0.008621 0.491667
vt 0.000000 0.500000
vt 0.000000 0.000000
vt 0.250000 0.008333
vt 0.258621 0.000000
vt 0.250000 0.491667
vt 0.258621 0.500000
vt 0.508621 0.491667
vt 0.508621 0.008333
vt 0.517241 0.000000
vt 0.517241 0.500000
vt 0.267241 0.491667
vt 0.267241 0.008333
vt 0.655173 0.716667
vt 0.655173 0.483333
vt 0.663794 0.483333
vt 0.663794 0.716667
vt 0.646552 0.716667
vt 0.646552 0.483333
vt 0.655173 0.483333
vt 0.655173 0.716667
vt 0.637931 0.483333
vt 0.637931 0.966667
vt 0.629311 0.966667
vt 0.629311 0.483333
vt 0.672414 0.483333
vt 0.672414 0.716667
vt 0.663794 0.716667
vt 0.663794 0.483333
vt 0.706896 0.483333
vt 0.706896 0.966667
vt 0.698276 0.966667
vt 0.698276 0.483333
vt 0.629311 0.483333
vt 0.629311 0.966667
vt 0.620690 0.966667
vt 0.620690 0.483333
vt 0.810345 0.983333
vt 0.758621 0.983333
vt 0.758621 0.483333
vt 0.810345 0.483333
vt 0.758621 0.733333
vt 0.706896 0.733333
vt 0.706896 0.483333
vt 0.758621 0.483333
vt 0.568966 0.983333
vt 0.517242 0.983333
vt 0.517241 0.483333
vt 0.568965 0.483333
vt 0.568966 0.733333
vt 0.620690 0.733333
vt 0.620690 0.983333
vt 0.568966 0.983333
vt 0.698276 0.483333
vt 0.698276 0.966667
vt 0.689655 0.966667
vt 0.689655 0.483333
vt 0.258621 1.000000
vt 0.000000 1.000000
vt 0.000000 0.500000
vt 0.258621 0.500000
vt 0.517241 1.000000
vt 0.517241 0.500000
vt 0.646552 0.483333
vt 0.646552 0.716667
vt 0.637931 0.716667
vt 0.637931 0.483333
vt 0.620690 0.483333
vt 0.758621 0.983333
vt 0.706897 0.983333
vt 0.008621 0.008333
vt 0.008621 0.491667
vt 0.000000 0.500000
vt 0.000000 0.000000
vt 0.250000 0.008333
vt 0.258621 0.000000
vt 0.250000 0.491667
vt 0.258621 0.500000
vt 0.508621 0.491667
vt 0.508621 0.008333
vt 0.517241 0.000000
vt 0.517241 0.500000
vt 0.267241 0.491667
vt 0.267241 0.008333
vt 0.655173 0.716667
vt 0.655173 0.483333
vt 0.663794 0.483333
vt 0.663794 0.716667
vt 0.646552 0.716667
vt 0.646552 0.483333
vt 0.655173 0.483333
vt 0.655173 0.716667
vt 0.637931 0.483333
vt 0.637931 0.966667
vt 0.629311 0.966667
vt 0.629311 0.483333
vt 0.672414 0.483333
vt 0.672414 0.716667
vt 0.663794 0.716667
vt 0.663794 0.483333
vt 0.706896 0.483333
vt 0.706896 0.966667
vt 0.698276 0.966667
vt 0.698276 0.483333
vt 0.629311 0.483333
vt 0.629311 0.966667
vt 0.620690 0.966667
vt 0.620690 0.483333
vt 0.810345 0.983333
vt 0.758621 0.983333
vt 0.758621 0.483333
vt 0.810345 0.483333
vt 0.758621 0.733333
vt 0.706896 0.733333
vt 0.706896 0.483333
vt 0.758621 0.483333
vt 0.568966 0.983333
vt 0.517242 0.983333
vt 0.517241 0.483333
vt 0.568965 0.483333
vt 0.568966 0.733333
vt 0.620690 0.733333
vt 0.620690 0.983333
vt 0.568966 0.983333
vt 0.698276 0.483333
vt 0.698276 0.966667
vt 0.689655 0.966667
vt 0.689655 0.483333
vt 0.258621 1.000000
vt 0.000000 1.000000
vt 0.000000 0.500000
vt 0.258621 0.500000
vt 0.517241 1.000000
vt 0.517241 0.500000
vt 0.646552 0.483333
vt 0.646552 0.716667
vt 0.637931 0.716667
vt 0.637931 0.483333
vt 0.620690 0.483333
vt 0.758621 0.983333
vt 0.706897 0.983333
vt 0.008621 0.008333
vt 0.008621 0.491667
vt 0.000000 0.500000
vt 0.000000 0.000000
vt 0.250000 0.008333
vt 0.258621 0.000000
vt 0.250000 0.491667
vt 0.258621 0.500000
vt 0.508621 0.491667
vt 0.508621 0.008333
vt 0.517241 0.000000
vt 0.517241 0.500000
vt 0.267241 0.491667
vt 0.267241 0.008333
vt 0.655173 0.716667
vt 0.655173 0.483333
vt 0.663794 0.483333
vt 0.663794 0.716667
vt 0.646552 0.716667
vt 0.646552 0.483333
vt 0.655173 0.483333
vt 0.655173 0.716667
vt 0.637931 0.483333
vt 0.637931 0.966667
vt 0.629311 0.966667
vt 0.629311 0.483333
vt 0.672414 0.483333
vt 0.672414 0.716667
vt 0.663794 0.716667
vt 0.663794 0.483333
vt 0.706896 0.483333
vt 0.706896 0.966667
vt 0.698276 0.966667
vt 0.698276 0.483333
vt 0.629311 0.483333
vt 0.629311 0.966667
vt 0.620690 0.966667
vt 0.620690 0.483333
vt 0.810345 0.983333
vt 0.758621 0.983333
vt 0.758621 0.483333
vt 0.810345 0.483333
vt 0.758621 0.733333
vt 0.706896 0.733333
vt 0.706896 0.483333
vt 0.758621 0.483333
vt 0.568966 0.983333
vt 0.517242 0.983333
vt 0.517241 0.483333
vt 0.568965 0.483333
vt 0.568966 0.733333
vt 0.620690 0.733333
vt 0.620690 0.983333
vt 0.568966 0.983333
vt 0.698276 0.483333
vt 0.698276 0.966667
vt 0.689655 0.966667
vt 0.689655 0.483333
vt 0.258621 1.000000
vt 0.000000 1.000000
vt 0.000000 0.500000
vt 0.258621 0.500000
vt 0.517241 1.000000
vt 0.517241 0.500000
vt 0.646552 0.483333
vt 0.646552 0.716667
vt 0.637931 0.716667
vt 0.637931 0.483333
vt 0.620690 0.483333
vt 0.758621 0.983333
vt 0.706897 0.983333
vt 0.008621 0.008333
vt 0.008621 0.491667
vt 0.000000 0.500000
vt 0.000000 0.000000
vt 0.250000 0.008333
vt 0.258621 0.000000
vt 0.250000 0.491667
vt 0.258621 0.500000
vt 0.508621 0.491667
vt 0.508621 0.008333
vt 0.517241 0.000000
vt 0.517241 0.500000
vt 0.267241 0.491667
vt 0.267241 0.008333
vt 0.655173 0.716667
vt 0.655173 0.483333
vt 0.663794 0.483333
vt 0.663794 0.716667
vt 0.646552 0.716667
vt 0.646552 0.483333
vt 0.655173 0.483333
vt 0.655173 0.716667
vt 0.637931 0.483333
vt 0.637931 0.966667
vt 0.629311 0.966667
vt 0.629311 0.483333
vt 0.672414 0.483333
vt 0.672414 0.716667
vt 0.663794 0.716667
vt 0.663794 0.483333
vt 0.706896 0.483333
vt 0.706896 0.966667
vt 0.698276 0.966667
vt 0.698276 0.483333
vt 0.629311 0.483333
vt 0.629311 0.966667
vt 0.620690 0.966667
vt 0.620690 0.483333
vt 0.810345 0.983333
vt 0.758621 0.983333
vt 0.758621 0.483333
vt 0.810345 0.483333
vt 0.758621 0.733333
vt 0.706896 0.733333
vt 0.706896 0.483333
vt 0.758621 0.483333
vt 0.568966 0.983333
vt 0.517242 0.983333
vt 0.517241 0.483333
vt 0.568965 0.483333
vt 0.568966 0.733333
vt 0.620690 0.733333
vt 0.620690 0.983333
vt 0.568966 0.983333
vt 0.698276 0.483333
vt 0.698276 0.966667
vt 0.689655 0.966667
vt 0.689655 0.483333
vt 0.258621 1.000000
vt 0.000000 1.000000
vt 0.000000 0.500000
vt 0.258621 0.500000
vt 0.517241 1.000000
vt 0.517241 0.500000
vt 0.646552 0.483333
vt 0.646552 0.716667
vt 0.637931 0.716667
vt 0.637931 0.483333
vt 0.620690 0.483333
vt 0.758621 0.983333
vt 0.706897 0.983333
vt 0.008621 0.008333
vt 0.008621 0.491667
vt 0.000000 0.500000
vt 0.000000 0.000000
vt 0.250000 0.008333
vt 0.258621 0.000000
vt 0.250000 0.491667
vt 0.258621 0.500000
vt 0.508621 0.491667
vt 0.508621 0.008333
vt 0.517241 0.000000
vt 0.517241 0.500000
vt 0.267241 0.491667
vt 0.267241 0.008333
vt 0.655173 0.716667
vt 0.655173 0.483333
vt 0.663794 0.483333
vt 0.663794 0.716667
vt 0.646552 0.716667
vt 0.646552 0.483333
vt 0.655173 0.483333
vt 0.655173 0.716667
vt 0.637931 0.483333
vt 0.637931 0.966667
vt 0.629311 0.966667
vt 0.629311 0.483333
vt 0.672414 0.483333
vt 0.672414 0.716667
vt 0.663794 0.716667
vt 0.663794 0.483333
vt 0.706896 0.483333
vt 0.706896 0.966667
vt 0.698276 0.966667
vt 0.698276 0.483333
vt 0.629311 0.483333
vt 0.629311 0.966667
vt 0.620690 0.966667
vt 0.620690 0.483333
vt 0.810345 0.983333
vt 0.758621 0.983333
vt 0.758621 0.483333
vt 0.810345 0.483333
vt 0.758621 0.733333
vt 0.706896 0.733333
vt 0.706896 0.483333
vt 0.758621 0.483333
vt 0.568966 0.983333
vt 0.517242 0.983333
vt 0.517241 0.483333
vt 0.568965 0.483333
vt 0.568966 0.733333
vt 0.620690 0.733333
vt 0.620690 0.983333
vt 0.568966 0.983333
vt 0.698276 0.483333
vt 0.698276 0.966667
vt 0.689655 0.966667
vt 0.689655 0.483333
vt 0.258621 1.000000
vt 0.000000 1.000000
vt 0.000000 0.500000
vt 0.258621 0.500000
vt 0.517241 1.000000
vt 0.517241 0.500000
vt 0.646552 0.483333
vt 0.646552 0.716667
vt 0.637931 0.716667
vt 0.637931 0.483333
vt 0.620690 0.483333
vt 0.758621 0.983333
vt 0.706897 0.983333
vt 0.008621 0.008333
vt 0.008621 0.491667
vt 0.000000 0.500000
vt 0.000000 0.000000
vt 0.250000 0.008333
vt 0.258621 0.000000
vt 0.250000 0.491667
vt 0.258621 0.500000
vt 0.508621 0.491667
vt 0.508621 0.008333
vt 0.517241 0.000000
vt 0.517241 0.500000
vt 0.267241 0.491667
vt 0.267241 0.008333
vt 0.655173 0.716667
vt 0.655173 0.483333
vt 0.663794 0.483333
vt 0.663794 0.716667
vt 0.646552 0.716667
vt 0.646552 0.483333
vt 0.655173 0.483333
vt 0.655173 0.716667
vt 0.637931 0.483333
vt 0.637931 0.966667
vt 0.629311 0.966667
vt 0.629311 0.483333
vt 0.672414 0.483333
vt 0.672414 0.716667
vt 0.663794 0.716667
vt 0.663794 0.483333
vt 0.706896 0.483333
vt 0.706896 0.966667
vt 0.698276 0.966667
vt 0.698276 0.483333
vt 0.629311 0.483333
vt 0.629311 0.966667
vt 0.620690 0.966667
vt 0.620690 0.483333
vt 0.517241 0.000000
vt 0.758621 0.000000
vt 0.758621 0.483333
vt 0.517241 0.483333
vt 0.758621 0.000000
vt 1.000000 0.000000
vt 1.000000 0.483333
vt 0.758621 0.483333
vt 0.517241 0.000000
vt 0.758621 0.000000
vt 0.758621 0.483333
vt 0.517241 0.483333
vt 0.758621 0.000000
vt 1.000000 0.000000
vt 1.000000 0.483333
vt 0.758621 0.483333
vt 0.517241 0.000000
vt 0.758621 0.000000
vt 0.758621 0.483333
vt 0.517241 0.483333
vt 0.758621 0.000000
vt 1.000000 0.000000
vt 1.000000 0.483333
vt 0.758621 0.483333
vt 0.517241 0.000000
vt 0.758621 0.000000
vt 0.758621 0.483333
vt 0.517241 0.483333
vt 0.758621 0.000000
vt 1.000000 0.000000
vt 1.000000 0.483333
vt 0.758621 0.483333
vt 0.517241 0.000000
vt 0.758621 0.000000
vt 0.758621 0.483333
vt 0.517241 0.483333
vt 0.758621 0.000000
vt 1.000000 0.000000
vt 1.000000 0.483333
vt 0.758621 0.483333
vt 0.517241 0.000000
vt 0.758621 0.000000
vt 0.758621 0.483333
vt 0.517241 0.483333
vt 0.758621 0.000000
vt 1.000000 0.000000
vt 1.000000 0.483333
vt 0.758621 0.483333
vn -1.0000 0.0000 0.0000
vn 0.0000 0.0000 -1.0000
vn 1.0000 0.0000 0.0000
vn 0.0000 0.0000 1.0000
vn 0.0000 1.0000 0.0000
vn 0.0000 -1.0000 0.0000
s off
f 14/1/1 2/2/1 4/3/1 13/4/1
f 20/5/2 10/6/2 8/7/2 18/8/2
f 18/9/3 8/10/3 6/11/3 17/12/3
f 19/13/4 12/14/4 2/15/4 14/16/4
f 9/17/1 11/18/1 24/19/1 23/20/1
f 10/21/5 4/22/5 2/23/5 12/24/5
f 8/25/5 10/21/5 12/24/5 6/26/5
f 5/27/2 16/28/2 27/29/2 25/30/2
f 17/12/4 6/31/4 12/14/4 19/13/4
f 13/32/2 4/33/2 10/6/2 20/5/2
f 3/34/6 1/35/6 14/36/6 13/37/6
f 9/38/6 3/34/6 13/37/6 20/39/6
f 1/35/6 11/40/6 19/41/6 14/36/6
f 11/40/6 9/38/6 20/39/6 19/41/6
f 5/42/6 7/43/6 18/44/6 17/45/6
f 16/46/6 5/42/6 17/45/6 19/41/6
f 7/43/6 15/47/6 20/39/6 18/44/6
f 15/47/6 16/46/6 19/41/6 20/39/6
f 3/48/4 9/49/4 23/50/4 21/51/4
f 15/52/4 7/53/4 26/54/4 28/55/4
f 7/56/1 5/57/1 25/58/1 26/59/1
f 11/60/2 1/61/2 22/62/2 24/63/2
f 16/64/3 15/65/3 28/66/3 27/67/3
f 1/68/3 3/69/3 21/70/3 22/71/3
f 42/72/1 30/73/1 32/74/1 41/75/1
f 48/76/2 38/77/2 36/78/2 46/79/2
f 46/80/3 36/81/3 34/82/3 45/83/3
f 47/84/4 40/85/4 30/86/4 42/87/4
f 37/88/1 39/89/1 52/90/1 51/91/1
f 38/92/5 32/93/5 30/94/5 40/95/5
f 36/96/5 38/92/5 40/95/5 34/97/5
f 33/98/2 44/99/2 55/100/2 53/101/2
f 45/83/4 34/102/4 40/85/4 47/84/4
f 41/103/2 32/104/2 38/77/2 48/76/2
f 31/105/6 29/106/6 42/107/6 41/108/6
f 37/109/6 31/105/6 41/108/6 48/110/6
f 29/106/6 39/111/6 47/112/6 42/107/6
f 39/111/6 37/109/6 48/110/6 47/112/6
f 33/113/6 35/114/6 46/115/6 45/116/6
f 44/117/6 33/113/6 45/116/6 47/112/6
f 35/114/6 43/118/6 48/110/6 46/115/6
f 43/118/6 44/117/6 47/112/6 48/110/6
f 31/119/4 37/120/4 51/121/4 49/122/4
f 43/123/4 35/124/4 54/125/4 56/126/4
f 35/127/1 33/128/1 53/129/1 54/130/1
f 39/131/2 29/132/2 50/133/2 52/134/2
f 44/135/3 43/136/3 56/137/3 55/138/3
f 29/139/3 31/140/3 49/141/3 50/142/3
f 70/143/1 58/144/1 60/145/1 69/146/1
f 76/147/2 66/148/2 64/149/2 74/150/2
f 74/151/3 64/152/3 62/153/3 73/154/3
f 75/155/4 68/156/4 58/157/4 70/158/4
f 65/159/1 67/160/1 80/161/1 79/162/1
f 66/163/5 60/164/5 58/165/5 68/166/5
f 64/167/5 66/163/5 68/166/5 62/168/5
f 61/169/2 72/170/2 83/171/2 81/172/2
f 73/154/4 62/173/4 68/156/4 75/155/4
f 69/174/2 60/175/2 66/148/2 76/147/2
f 59/176/6 57/177/6 70/178/6 69/179/6
f 65/180/6 59/176/6 69/179/6 76/181/6
f 57/177/6 67/182/6 75/183/6 70/178/6
f 67/182/6 65/180/6 76/181/6 75/183/6
f 61/184/6 63/185/6 74/186/6 73/187/6
f 72/188/6 61/184/6 73/187/6 75/183/6
f 63/185/6 71/189/6 76/181/6 74/186/6
f 71/189/6 72/188/6 75/183/6 76/181/6
f 59/190/4 65/191/4 79/192/4 77/193/4
f 71/194/4 63/195/4 82/196/4 84/197/4
f 63/198/1 61/199/1 81/200/1 82/201/1
f 67/202/2 57/203/2 78/204/2 80/205/2
f 72/206/3 71/207/3 84/208/3 83/209/3
f 57/210/3 59/211/3 77/212/3 78/213/3
f 98/214/1 86/215/1 88/216/1 97/217/1
f 104/218/2 94/219/2 92/220/2 102/221/2
f 102/222/3 92/223/3 90/224/3 101/225/3
f 103/226/4 96/227/4 86/228/4 98/229/4
f 93/230/1 95/231/1 108/232/1 107/233/1
f 94/234/5 88/235/5 86/236/5 96/237/5
f 92/238/5 94/234/5 96/237/5 90/239/5
f 89/240/2 100/241/2 111/242/2 109/243/2
f 101/225/4 90/244/4 96/227/4 103/226/4
f 97/245/2 88/246/2 94/219/2 104/218/2
f 87/247/6 85/248/6 98/249/6 97/250/6
f 93/251/6 87/247/6 97/250/6 104/252/6
f 85/248/6 95/253/6 103/254/6 98/249/6
f 95/253/6 93/251/6 104/252/6 103/254/6
f 89/255/6 91/256/6 102/257/6 101/258/6
f 100/259/6 89/255/6 101/258/6 103/254/6
f 91/256/6 99/260/6 104/252/6 102/257/6
f 99/260/6 100/259/6 103/254/6 104/252/6
f 87/261/4 93/262/4 107/263/4 105/264/4
f 99/265/4 91/266/4 110/267/4 112/268/4
f 91/269/1 89/270/1 109/271/1 110/272/1
f 95/273/2 85/274/2 106/275/2 108/276/2
f 100/277/3 99/278/3 112/279/3 111/280/3
f 85/281/3 87/282/3 105/283/3 106/284/3
f 126/285/1 114/286/1 116/287/1 125/288/1
f 132/289/2 122/290/2 120/291/2 130/292/2
f 130/293/3 120/294/3 118/295/3 129/296/3
f 131/297/4 124/298/4 114/299/4 126/300/4
f 121/301/1 123/302/1 136/303/1 135/304/1
f 122/305/5 116/306/5 114/307/5 124/308/5
f 120/309/5 122/305/5 124/308/5 118/310/5
f 117/311/2 128/312/2 139/313/2 137/314/2
f 129/296/4 118/315/4 124/298/4 131/297/4
f 125/316/2 116/317/2 122/290/2 132/289/2
f 115/318/6 113/319/6 126/320/6 125/321/6
f 121/322/6 115/318/6 125/321/6 132/323/6
f 113/319/6 123/324/6 131/325/6 126/320/6
f 123/324/6 121/322/6 132/323/6 131/325/6
f 117/326/6 119/327/6 130/328/6 129/329/6
f 128/330/6 117/326/6 129/329/6 131/325/6
f 119/327/6 127/331/6 132/323/6 130/328/6
f 127/331/6 128/330/6 131/325/6 132/323/6
f 115/332/4 121/333/4 135/334/4 133/335/4
f 127/336/4 119/337/4 138/338/4 140/339/4
f 119/340/1 117/341/1 137/342/1 138/343/1
f 123/344/2 113/345/2 134/346/2 136/347/2
f 128/348/3 127/349/3 140/350/3 139/351/3
f 113/352/3 115/353/3 133/354/3 134/355/3
f 154/356/1 142/357/1 144/358/1 153/359/1
f 160/360/2 150/361/2 148/362/2 158/363/2
f 158/364/3 148/365/3 146/366/3 157/367/3
f 159/368/4 152/369/4 142/370/4 154/371/4
f 149/372/1 151/373/1 164/374/1 163/375/1
f 150/376/5 144/377/5 142/378/5 152/379/5
f 148/380/5 150/376/5 152/379/5 146/381/5
f 145/382/2 156/383/2 167/384/2 165/385/2
f 157/367/4 146/386/4 152/369/4 159/368/4
f 153/387/2 144/388/2 150/361/2 160/360/2
f 143/389/6 141/390/6 154/391/6 153/392/6
f 149/393/6 143/389/6 153/392/6 160/394/6
f 141/390/6 151/395/6 159/396/6 154/391/6
f 151/395/6 149/393/6 160/394/6 159/396/6
f 145/397/6 147/398/6 158/399/6 157/400/6
f 156/401/6 145/397/6 157/400/6 159/396/6
f 147/398/6 155/402/6 160/394/6 158/399/6
f 155/402/6 156/401/6 159/396/6 160/394/6
f 143/403/4 149/404/4 163/405/4 161/406/4
f 155/407/4 147/408/4 166/409/4 168/410/4
f 147/411/1 145/412/1 165/413/1 166/414/1
f 151/415/2 141/416/2 162/417/2 164/418/2
f 156/419/3 155/420/3 168/421/3 167/422/3
f 141/423/3 143/424/3 161/425/3 162/426/3
f 28/427/6 26/428/6 25/429/6 27/430/6
f 21/431/6 23/432/6 24/433/6 22/434/6
f 56/435/6 54/436/6 53/437/6 55/438/6
f 49/439/6 51/440/6 52/441/6 50/442/6
f 84/443/6 82/444/6 81/445/6 83/446/6
f 77/447/6 79/448/6 80/449/6 78/450/6
f 112/451/6 110/452/6 109/453/6 111/454/6
f 105/455/6 107/456/6 108/457/6 106/458/6
f 140/459/6 138/460/6 137/461/6 139/462/6
f 133/463/6 135/464/6 136/465/6 134/466/6
f 168/467/6 166/468/6 165/469/6 167/470/6
f 161/471/6 163/472/6 164/473/6 162/474/6
