# Blender v2.79 (sub 0) OBJ File: 'ambientrender.blend'
# www.blender.org
o notausgang.001
v -1.196496 2.081407 -2.995620
v -1.500268 2.081407 -2.995620
v -1.196496 2.233293 -2.995620
v -1.500268 2.233293 -2.995620
v -1.196496 2.081407 -2.965899
v -1.500268 2.081407 -2.965899
v -1.196496 2.233293 -2.965899
v -1.500268 2.233293 -2.965899
vt 0.766092 1.000000
vt 0.383046 1.000000
vt 0.383046 0.000000
vt 0.766091 0.000000
vt 0.000000 1.000000
vt 0.000000 0.000000
vt 0.383046 0.000000
vt 0.383046 1.000000
vt 0.841046 0.000000
vt 0.841046 1.000000
vt 0.766092 1.000000
vt 0.766092 0.000000
vt 0.916000 0.000000
vt 0.916000 1.000000
vt 0.841046 1.000000
vt 0.841046 0.000000
vt 0.916000 0.500000
vt 0.990954 0.500000
vt 0.990954 1.000000
vt 0.916000 0.500000
vt 0.990954 0.000000
vt 0.990954 0.500000
vn 0.0000 0.0000 1.0000
vn 0.0000 0.0000 -1.0000
vn 0.0000 -1.0000 -0.0000
vn 0.0000 1.0000 0.0000
vn 1.0000 0.0000 -0.0000
vn -1.0000 0.0000 0.0000
s off
f 1/1/1 3/2/1 4/3/1 2/4/1
f 5/5/2 6/6/2 8/7/2 7/8/2
f 4/9/3 3/10/3 7/11/3 8/12/3
f 1/13/4 2/14/4 6/15/4 5/16/4
f 2/14/5 4/17/5 8/18/5 6/19/5
f 3/20/6 1/13/6 5/21/6 7/22/6
