# Blender v2.79 (sub 0) OBJ File: 'table.blend'
# www.blender.org
o Table_Plane.001
v -0.350000 0.000000 0.500000
v 0.350000 0.000000 0.500000
v -0.350000 0.000000 -0.500000
v 0.350000 0.000000 -0.500000
v -0.164858 0.050000 0.314858
v 0.164858 0.050000 0.314858
v -0.164858 0.050000 -0.314858
v 0.164858 0.050000 -0.314858
v -0.350000 0.050000 -0.500000
v -0.350000 0.050000 0.500000
v 0.350000 0.050000 0.500000
v 0.350000 0.050000 -0.500000
v -0.164858 0.650000 0.314858
v 0.164858 0.650000 0.314858
v -0.164858 0.650000 -0.314858
v 0.164858 0.650000 -0.314858
v -0.348471 0.700000 1.000000
v 0.348471 0.700000 1.000000
v -0.348471 0.700000 -1.000000
v 0.348471 0.700000 -1.000000
v -0.348471 0.720000 1.000000
v 0.348471 0.720000 1.000000
v -0.348471 0.720000 -1.000000
v 0.348471 0.720000 -1.000000
vt 0.849928 0.000000
vt 0.849928 0.380269
vt 0.565791 0.380269
vt 0.565791 0.000000
vt 0.983764 0.456323
vt 0.849928 0.456323
vt 0.849928 0.228161
vt 0.983764 0.228161
vt 0.870224 0.456323
vt 0.870224 0.836592
vt 0.849928 0.836592
vt 0.849928 0.456323
vt 0.890519 0.456323
vt 0.890519 0.836592
vt 0.870224 0.836592
vt 0.870224 0.456323
vt 0.890519 0.722511
vt 0.910815 0.456323
vt 0.910815 0.722511
vt 0.910815 0.722511
vt 0.910815 0.456323
vt 0.931110 0.456323
vt 0.931110 0.722511
vt 0.774777 0.690135
vt 0.774777 0.450673
vt 0.849928 0.380269
vt 0.849928 0.760538
vt 0.640942 0.690135
vt 0.565791 0.760538
vt 0.640942 0.450673
vt 0.565791 0.380269
vt 0.074530 0.500000
vt 0.208365 0.500000
vt 0.282895 0.760538
vt 0.000000 0.760538
vt 0.983764 0.228161
vt 0.849928 0.228161
vt 0.849928 0.000000
vt 0.983763 0.000000
vt 0.000000 1.000000
vt 0.000000 0.760538
vt 0.243546 0.760538
vt 0.243546 1.000000
vt 0.487092 0.760538
vt 0.487092 1.000000
vt 0.243546 1.000000
vt 0.243546 0.760538
vt 1.000000 0.000000
vt 1.000000 0.760538
vt 0.991882 0.760538
vt 0.991882 0.000000
vt 0.208365 0.260538
vt 0.282896 0.000000
vt 0.074530 0.260538
vt 0.000000 0.000000
vt 0.282896 0.000000
vt 0.565791 0.000000
vt 0.565791 0.760538
vt 0.282896 0.760538
vt 0.991882 0.000000
vt 0.991882 0.760538
vt 0.983764 0.760538
vt 0.983764 0.000000
vt 0.931111 0.721348
vt 0.931110 0.456323
vt 0.939229 0.456323
vt 0.939229 0.721348
vt 0.939229 0.721348
vt 0.939229 0.456323
vt 0.947347 0.456323
vt 0.947347 0.721348
vn 0.0000 -1.0000 0.0000
vn 0.0000 0.0000 -1.0000
vn 1.0000 0.0000 0.0000
vn -1.0000 0.0000 0.0000
vn 0.0000 0.0000 1.0000
vn 0.0000 1.0000 0.0000
vn 0.0000 -0.9973 0.0728
vn 0.2627 -0.9649 0.0000
vn -0.2627 -0.9649 0.0000
vn 0.0000 -0.9973 -0.0728
s off
f 1/1/1 3/2/1 4/3/1 2/4/1
f 8/5/2 7/6/2 15/7/2 16/8/2
f 2/9/3 4/10/3 12/11/3 11/12/3
f 3/13/4 1/14/4 10/15/4 9/16/4
f 4/17/2 3/13/2 9/18/2 12/19/2
f 1/20/5 2/21/5 11/22/5 10/23/5
f 5/24/6 7/25/6 9/26/6 10/27/6
f 6/28/6 5/24/6 10/27/6 11/29/6
f 8/30/6 6/28/6 11/29/6 12/31/6
f 7/25/6 8/30/6 12/31/6 9/26/6
f 13/32/7 14/33/7 18/34/7 17/35/7
f 5/36/5 6/37/5 14/38/5 13/39/5
f 6/40/3 8/41/3 16/42/3 14/43/3
f 7/44/4 5/45/4 13/46/4 15/47/4
f 18/48/3 20/49/3 24/50/3 22/51/3
f 14/33/8 16/52/8 20/53/8 18/34/8
f 15/54/9 13/32/9 17/35/9 19/55/9
f 16/52/10 15/54/10 19/55/10 20/53/10
f 21/56/6 22/57/6 24/58/6 23/59/6
f 19/60/4 17/61/4 21/62/4 23/63/4
f 20/64/2 19/65/2 23/66/2 24/67/2
f 17/68/5 18/69/5 22/70/5 21/71/5
